# xmcd
# Copyright (C) 1995-1998 Ti Kan
#
# Track frame offsets:
#       150
#       94929
#       173495
#       246214
#
# Disc length: 3597 seconds
#
# Revision: 0
# Processed by: cddbd v1.5.2PL0 Copyright (c) Steve Scherf et al.
# Submitted via: CD-Transfer v1.0
#
DISCID=280e0b04
DTITLE=Raffaello  - 
DYEAR=08
DGENRE=
TTITLE0=Italija 01
TTITLE1=Italija 02
TTITLE2=Italija 03
TTITLE3=Italija 04
EXTD=
EXTT0=
EXTT1=
EXTT2=
EXTT3=
PLAYORDER=
